G04 #@! TF.FileFunction,Legend,Top*
%FSLAX46Y46*%
G04 Gerber Fmt 4.6, Leading zero omitted, Abs format (unit mm)*
G04 Created by KiCad (PCBNEW 4.0.1-3.201512221402+6198~38~ubuntu14.04.1-stable) date Wed 27 Jan 2016 01:24:07 PM EST*
%MOMM*%
G01*
G04 APERTURE LIST*
%ADD10C,0.100000*%
%ADD11C,0.200000*%
%ADD12C,0.150000*%
G04 APERTURE END LIST*
D10*
D11*
X150000000Y-112000000D02*
X150000000Y-97000000D01*
X180000000Y-112000000D02*
X150000000Y-112000000D01*
X180000000Y-97000000D02*
X180000000Y-112000000D01*
X150000000Y-97000000D02*
X180000000Y-97000000D01*
D12*
X166450000Y-110625000D02*
X168550000Y-110625000D01*
X165675000Y-107375000D02*
X168550000Y-107375000D01*
X167350000Y-103325000D02*
X166350000Y-103325000D01*
X166350000Y-101975000D02*
X167350000Y-101975000D01*
X177650000Y-104500000D02*
X176950000Y-104500000D01*
X176950000Y-103300000D02*
X177650000Y-103300000D01*
X169400000Y-105400000D02*
X170100000Y-105400000D01*
X170100000Y-106600000D02*
X169400000Y-106600000D01*
X173100000Y-109650000D02*
X173100000Y-110350000D01*
X171900000Y-110350000D02*
X171900000Y-109650000D01*
X175500000Y-104750000D02*
G75*
G03X175500000Y-104750000I-250000J0D01*
G01*
X175500000Y-105500000D02*
X175500000Y-105250000D01*
X175500000Y-105250000D02*
X177500000Y-105250000D01*
X177500000Y-105250000D02*
X177500000Y-105500000D01*
X177500000Y-107750000D02*
X177500000Y-107500000D01*
X175500000Y-107750000D02*
X175500000Y-107500000D01*
X175500000Y-107750000D02*
X177500000Y-107750000D01*
X175487500Y-111125000D02*
X177637500Y-111125000D01*
X174662500Y-108875000D02*
X177637500Y-108875000D01*
X171650000Y-100625000D02*
X170450000Y-100625000D01*
X170450000Y-98875000D02*
X171650000Y-98875000D01*
X168349160Y-99349000D02*
X168300900Y-99349000D01*
X165550180Y-100050040D02*
X165550180Y-99349000D01*
X165550180Y-99349000D02*
X165799100Y-99349000D01*
X168349160Y-99349000D02*
X168549820Y-99349000D01*
X168549820Y-99349000D02*
X168549820Y-100050040D01*
X173340000Y-100250000D02*
X173590000Y-100500000D01*
X173590000Y-97500000D02*
X173340000Y-97750000D01*
X173340000Y-100500000D02*
X173340000Y-97500000D01*
X173340000Y-97500000D02*
X179340000Y-97500000D01*
X179340000Y-97500000D02*
X179340000Y-100500000D01*
X179340000Y-100500000D02*
X173340000Y-100500000D01*
M02*
