M48
;DRILL file {KiCad 4.0.1-3.201512221402+6198~38~ubuntu14.04.1-stable} date Wed 27 Jan 2016 01:24:09 PM EST
;FORMAT={-:-/ absolute / inch / decimal}
FMAT,2
INCH,TZ
T1C0.012
T2C0.067
%
G90
G05
M72
T1
X5.9764Y-3.8563
X6.5039Y-4.3209
X6.5787Y-4.2165
X6.5787Y-4.3602
X6.628Y-3.8976
X6.6555Y-3.9764
X6.708Y-4.292
X6.7185Y-4.3228
X6.75Y-4.1732
X6.8386Y-4.2895
X6.8543Y-4.3602
X6.8622Y-4.2323
X6.8942Y-4.2692
X6.9114Y-4.0906
X6.9488Y-3.8976
X6.9685Y-4.2795
X6.9882Y-3.9764
X7.0472Y-4.3209
T2
X6.1299Y-4.0945
X6.4055Y-4.0945
T0
M30
