G04 #@! TF.FileFunction,Soldermask,Bot*
%FSLAX46Y46*%
G04 Gerber Fmt 4.6, Leading zero omitted, Abs format (unit mm)*
G04 Created by KiCad (PCBNEW 4.0.1-3.201512221402+6198~38~ubuntu14.04.1-stable) date Wed 27 Jan 2016 01:24:07 PM EST*
%MOMM*%
G01*
G04 APERTURE LIST*
%ADD10C,0.100000*%
G04 APERTURE END LIST*
D10*
G36*
X157650000Y-109150000D02*
X155350000Y-109150000D01*
X155350000Y-106250000D01*
X157650000Y-106250000D01*
X157650000Y-109150000D01*
X157650000Y-109150000D01*
G37*
G36*
X154750000Y-109150000D02*
X152650000Y-109150000D01*
X152650000Y-106250000D01*
X154750000Y-106250000D01*
X154750000Y-109150000D01*
X154750000Y-109150000D01*
G37*
G36*
X169550000Y-106200000D02*
X166650000Y-106200000D01*
X166650000Y-103300000D01*
X169550000Y-103300000D01*
X169550000Y-106200000D01*
X169550000Y-106200000D01*
G37*
G36*
X155794531Y-103100598D02*
X155967422Y-103136087D01*
X156130135Y-103204486D01*
X156276459Y-103303182D01*
X156400825Y-103428420D01*
X156498498Y-103575429D01*
X156543337Y-103684219D01*
X156560784Y-103726547D01*
X156565757Y-103738614D01*
X156597553Y-103899192D01*
X156600039Y-103911750D01*
X156597224Y-104113346D01*
X156597186Y-104113513D01*
X156597186Y-104113518D01*
X156558121Y-104285460D01*
X156486334Y-104446698D01*
X156384590Y-104590929D01*
X156256780Y-104712641D01*
X156107754Y-104807215D01*
X155943198Y-104871042D01*
X155769384Y-104901691D01*
X155592918Y-104897994D01*
X155420538Y-104860093D01*
X155258802Y-104789433D01*
X155113868Y-104688701D01*
X154991262Y-104561739D01*
X154895650Y-104413378D01*
X154830677Y-104249275D01*
X154798816Y-104075679D01*
X154801281Y-103899192D01*
X154837977Y-103726547D01*
X154907506Y-103564325D01*
X155007222Y-103418692D01*
X155133330Y-103295199D01*
X155281013Y-103198557D01*
X155444664Y-103132438D01*
X155618037Y-103099365D01*
X155794531Y-103100598D01*
X155794531Y-103100598D01*
G37*
G36*
X162794531Y-103100598D02*
X162967422Y-103136087D01*
X163130135Y-103204486D01*
X163276459Y-103303182D01*
X163400825Y-103428420D01*
X163498498Y-103575429D01*
X163543337Y-103684219D01*
X163560784Y-103726547D01*
X163565757Y-103738614D01*
X163597553Y-103899192D01*
X163600039Y-103911750D01*
X163597224Y-104113346D01*
X163597186Y-104113513D01*
X163597186Y-104113518D01*
X163558121Y-104285460D01*
X163486334Y-104446698D01*
X163384590Y-104590929D01*
X163256780Y-104712641D01*
X163107754Y-104807215D01*
X162943198Y-104871042D01*
X162769384Y-104901691D01*
X162592918Y-104897994D01*
X162420538Y-104860093D01*
X162258802Y-104789433D01*
X162113868Y-104688701D01*
X161991262Y-104561739D01*
X161895650Y-104413378D01*
X161830677Y-104249275D01*
X161798816Y-104075679D01*
X161801281Y-103899192D01*
X161837977Y-103726547D01*
X161907506Y-103564325D01*
X162007222Y-103418692D01*
X162133330Y-103295199D01*
X162281013Y-103198557D01*
X162444664Y-103132438D01*
X162618037Y-103099365D01*
X162794531Y-103100598D01*
X162794531Y-103100598D01*
G37*
G36*
X165450000Y-101750000D02*
X162550000Y-101750000D01*
X162550000Y-98850000D01*
X165450000Y-98850000D01*
X165450000Y-101750000D01*
X165450000Y-101750000D01*
G37*
G36*
X155750000Y-101750000D02*
X153450000Y-101750000D01*
X153450000Y-98850000D01*
X155750000Y-98850000D01*
X155750000Y-101750000D01*
X155750000Y-101750000D01*
G37*
G36*
X152850000Y-101750000D02*
X150750000Y-101750000D01*
X150750000Y-98850000D01*
X152850000Y-98850000D01*
X152850000Y-101750000D01*
X152850000Y-101750000D01*
G37*
M02*
