G04 #@! TF.FileFunction,Legend,Top*
%FSLAX46Y46*%
G04 Gerber Fmt 4.6, Leading zero omitted, Abs format (unit mm)*
G04 Created by KiCad (PCBNEW 4.0.1-3.201512221402+6198~38~ubuntu14.04.1-stable) date Wed 24 Feb 2016 01:49:48 AM EST*
%MOMM*%
G01*
G04 APERTURE LIST*
%ADD10C,0.100000*%
%ADD11C,0.200000*%
%ADD12C,0.300000*%
%ADD13C,0.150000*%
G04 APERTURE END LIST*
D10*
D11*
X168952381Y-91809524D02*
X167952381Y-91809524D01*
X168952381Y-91238095D01*
X167952381Y-91238095D01*
X167952381Y-90571429D02*
X167952381Y-90380952D01*
X168000000Y-90285714D01*
X168095238Y-90190476D01*
X168285714Y-90142857D01*
X168619048Y-90142857D01*
X168809524Y-90190476D01*
X168904762Y-90285714D01*
X168952381Y-90380952D01*
X168952381Y-90571429D01*
X168904762Y-90666667D01*
X168809524Y-90761905D01*
X168619048Y-90809524D01*
X168285714Y-90809524D01*
X168095238Y-90761905D01*
X168000000Y-90666667D01*
X167952381Y-90571429D01*
X167952381Y-89857143D02*
X167952381Y-89285714D01*
X168952381Y-89571429D02*
X167952381Y-89571429D01*
X168666667Y-88238095D02*
X168666667Y-87761904D01*
X168952381Y-88333333D02*
X167952381Y-88000000D01*
X168952381Y-87666666D01*
X168952381Y-87333333D02*
X167952381Y-87333333D01*
X168952381Y-86761904D01*
X167952381Y-86761904D01*
X168666667Y-85571428D02*
X168666667Y-85095237D01*
X168952381Y-85666666D02*
X167952381Y-85333333D01*
X168952381Y-84999999D01*
X167952381Y-84666666D02*
X168761905Y-84666666D01*
X168857143Y-84619047D01*
X168904762Y-84571428D01*
X168952381Y-84476190D01*
X168952381Y-84285713D01*
X168904762Y-84190475D01*
X168857143Y-84142856D01*
X168761905Y-84095237D01*
X167952381Y-84095237D01*
X168952381Y-83619047D02*
X167952381Y-83619047D01*
X167952381Y-83380952D01*
X168000000Y-83238094D01*
X168095238Y-83142856D01*
X168190476Y-83095237D01*
X168380952Y-83047618D01*
X168523810Y-83047618D01*
X168714286Y-83095237D01*
X168809524Y-83142856D01*
X168904762Y-83238094D01*
X168952381Y-83380952D01*
X168952381Y-83619047D01*
X168952381Y-82619047D02*
X167952381Y-82619047D01*
X167952381Y-81952381D02*
X167952381Y-81761904D01*
X168000000Y-81666666D01*
X168095238Y-81571428D01*
X168285714Y-81523809D01*
X168619048Y-81523809D01*
X168809524Y-81571428D01*
X168904762Y-81666666D01*
X168952381Y-81761904D01*
X168952381Y-81952381D01*
X168904762Y-82047619D01*
X168809524Y-82142857D01*
X168619048Y-82190476D01*
X168285714Y-82190476D01*
X168095238Y-82142857D01*
X168000000Y-82047619D01*
X167952381Y-81952381D01*
X168952381Y-80333333D02*
X167952381Y-80333333D01*
X167952381Y-80095238D01*
X168000000Y-79952380D01*
X168095238Y-79857142D01*
X168190476Y-79809523D01*
X168380952Y-79761904D01*
X168523810Y-79761904D01*
X168714286Y-79809523D01*
X168809524Y-79857142D01*
X168904762Y-79952380D01*
X168952381Y-80095238D01*
X168952381Y-80333333D01*
X168428571Y-79333333D02*
X168428571Y-78999999D01*
X168952381Y-78857142D02*
X168952381Y-79333333D01*
X167952381Y-79333333D01*
X167952381Y-78857142D01*
X167952381Y-78571428D02*
X168952381Y-78238095D01*
X167952381Y-77904761D01*
X168952381Y-77571428D02*
X167952381Y-77571428D01*
X168857143Y-76523809D02*
X168904762Y-76571428D01*
X168952381Y-76714285D01*
X168952381Y-76809523D01*
X168904762Y-76952381D01*
X168809524Y-77047619D01*
X168714286Y-77095238D01*
X168523810Y-77142857D01*
X168380952Y-77142857D01*
X168190476Y-77095238D01*
X168095238Y-77047619D01*
X168000000Y-76952381D01*
X167952381Y-76809523D01*
X167952381Y-76714285D01*
X168000000Y-76571428D01*
X168047619Y-76523809D01*
X168428571Y-76095238D02*
X168428571Y-75761904D01*
X168952381Y-75619047D02*
X168952381Y-76095238D01*
X167952381Y-76095238D01*
X167952381Y-75619047D01*
X168857143Y-75190476D02*
X168904762Y-75142857D01*
X168952381Y-75190476D01*
X168904762Y-75238095D01*
X168857143Y-75190476D01*
X168952381Y-75190476D01*
X168571429Y-75190476D02*
X168000000Y-75238095D01*
X167952381Y-75190476D01*
X168000000Y-75142857D01*
X168571429Y-75190476D01*
X167952381Y-75190476D01*
D12*
X136928572Y-61478571D02*
X137214286Y-61478571D01*
X137357144Y-61550000D01*
X137500001Y-61692857D01*
X137571429Y-61978571D01*
X137571429Y-62478571D01*
X137500001Y-62764286D01*
X137357144Y-62907143D01*
X137214286Y-62978571D01*
X136928572Y-62978571D01*
X136785715Y-62907143D01*
X136642858Y-62764286D01*
X136571429Y-62478571D01*
X136571429Y-61978571D01*
X136642858Y-61692857D01*
X136785715Y-61550000D01*
X136928572Y-61478571D01*
X138214287Y-61978571D02*
X138214287Y-63478571D01*
X138214287Y-62050000D02*
X138357144Y-61978571D01*
X138642858Y-61978571D01*
X138785715Y-62050000D01*
X138857144Y-62121429D01*
X138928573Y-62264286D01*
X138928573Y-62692857D01*
X138857144Y-62835714D01*
X138785715Y-62907143D01*
X138642858Y-62978571D01*
X138357144Y-62978571D01*
X138214287Y-62907143D01*
X140142858Y-62907143D02*
X140000001Y-62978571D01*
X139714287Y-62978571D01*
X139571430Y-62907143D01*
X139500001Y-62764286D01*
X139500001Y-62192857D01*
X139571430Y-62050000D01*
X139714287Y-61978571D01*
X140000001Y-61978571D01*
X140142858Y-62050000D01*
X140214287Y-62192857D01*
X140214287Y-62335714D01*
X139500001Y-62478571D01*
X140857144Y-61978571D02*
X140857144Y-62978571D01*
X140857144Y-62121429D02*
X140928572Y-62050000D01*
X141071430Y-61978571D01*
X141285715Y-61978571D01*
X141428572Y-62050000D01*
X141500001Y-62192857D01*
X141500001Y-62978571D01*
X144214287Y-62835714D02*
X144142858Y-62907143D01*
X143928572Y-62978571D01*
X143785715Y-62978571D01*
X143571430Y-62907143D01*
X143428572Y-62764286D01*
X143357144Y-62621429D01*
X143285715Y-62335714D01*
X143285715Y-62121429D01*
X143357144Y-61835714D01*
X143428572Y-61692857D01*
X143571430Y-61550000D01*
X143785715Y-61478571D01*
X143928572Y-61478571D01*
X144142858Y-61550000D01*
X144214287Y-61621429D01*
X145428572Y-62907143D02*
X145285715Y-62978571D01*
X145000001Y-62978571D01*
X144857144Y-62907143D01*
X144785715Y-62764286D01*
X144785715Y-62192857D01*
X144857144Y-62050000D01*
X145000001Y-61978571D01*
X145285715Y-61978571D01*
X145428572Y-62050000D01*
X145500001Y-62192857D01*
X145500001Y-62335714D01*
X144785715Y-62478571D01*
X146357144Y-62978571D02*
X146214286Y-62907143D01*
X146142858Y-62764286D01*
X146142858Y-61478571D01*
X147142858Y-62978571D02*
X147000000Y-62907143D01*
X146928572Y-62764286D01*
X146928572Y-61478571D01*
X148857143Y-62978571D02*
X148857143Y-61478571D01*
X149571429Y-61978571D02*
X149571429Y-62978571D01*
X149571429Y-62121429D02*
X149642857Y-62050000D01*
X149785715Y-61978571D01*
X150000000Y-61978571D01*
X150142857Y-62050000D01*
X150214286Y-62192857D01*
X150214286Y-62978571D01*
X151571429Y-62907143D02*
X151428572Y-62978571D01*
X151142858Y-62978571D01*
X151000000Y-62907143D01*
X150928572Y-62835714D01*
X150857143Y-62692857D01*
X150857143Y-62264286D01*
X150928572Y-62121429D01*
X151000000Y-62050000D01*
X151142858Y-61978571D01*
X151428572Y-61978571D01*
X151571429Y-62050000D01*
X152857143Y-61978571D02*
X152857143Y-62978571D01*
X152214286Y-61978571D02*
X152214286Y-62764286D01*
X152285714Y-62907143D01*
X152428572Y-62978571D01*
X152642857Y-62978571D01*
X152785714Y-62907143D01*
X152857143Y-62835714D01*
X153571429Y-62978571D02*
X153571429Y-61478571D01*
X153571429Y-62050000D02*
X153714286Y-61978571D01*
X154000000Y-61978571D01*
X154142857Y-62050000D01*
X154214286Y-62121429D01*
X154285715Y-62264286D01*
X154285715Y-62692857D01*
X154214286Y-62835714D01*
X154142857Y-62907143D01*
X154000000Y-62978571D01*
X153714286Y-62978571D01*
X153571429Y-62907143D01*
X155571429Y-62978571D02*
X155571429Y-62192857D01*
X155500000Y-62050000D01*
X155357143Y-61978571D01*
X155071429Y-61978571D01*
X154928572Y-62050000D01*
X155571429Y-62907143D02*
X155428572Y-62978571D01*
X155071429Y-62978571D01*
X154928572Y-62907143D01*
X154857143Y-62764286D01*
X154857143Y-62621429D01*
X154928572Y-62478571D01*
X155071429Y-62407143D01*
X155428572Y-62407143D01*
X155571429Y-62335714D01*
X156071429Y-61978571D02*
X156642858Y-61978571D01*
X156285715Y-61478571D02*
X156285715Y-62764286D01*
X156357143Y-62907143D01*
X156500001Y-62978571D01*
X156642858Y-62978571D01*
X157357144Y-62978571D02*
X157214286Y-62907143D01*
X157142858Y-62835714D01*
X157071429Y-62692857D01*
X157071429Y-62264286D01*
X157142858Y-62121429D01*
X157214286Y-62050000D01*
X157357144Y-61978571D01*
X157571429Y-61978571D01*
X157714286Y-62050000D01*
X157785715Y-62121429D01*
X157857144Y-62264286D01*
X157857144Y-62692857D01*
X157785715Y-62835714D01*
X157714286Y-62907143D01*
X157571429Y-62978571D01*
X157357144Y-62978571D01*
X158500001Y-62978571D02*
X158500001Y-61978571D01*
X158500001Y-62264286D02*
X158571429Y-62121429D01*
X158642858Y-62050000D01*
X158785715Y-61978571D01*
X158928572Y-61978571D01*
X139285715Y-65378571D02*
X139285715Y-63878571D01*
X139285715Y-64592857D02*
X140142858Y-64592857D01*
X140142858Y-65378571D02*
X140142858Y-63878571D01*
X141071430Y-65378571D02*
X140928572Y-65307143D01*
X140857144Y-65235714D01*
X140785715Y-65092857D01*
X140785715Y-64664286D01*
X140857144Y-64521429D01*
X140928572Y-64450000D01*
X141071430Y-64378571D01*
X141285715Y-64378571D01*
X141428572Y-64450000D01*
X141500001Y-64521429D01*
X141571430Y-64664286D01*
X141571430Y-65092857D01*
X141500001Y-65235714D01*
X141428572Y-65307143D01*
X141285715Y-65378571D01*
X141071430Y-65378571D01*
X142142858Y-65307143D02*
X142285715Y-65378571D01*
X142571430Y-65378571D01*
X142714287Y-65307143D01*
X142785715Y-65164286D01*
X142785715Y-65092857D01*
X142714287Y-64950000D01*
X142571430Y-64878571D01*
X142357144Y-64878571D01*
X142214287Y-64807143D01*
X142142858Y-64664286D01*
X142142858Y-64592857D01*
X142214287Y-64450000D01*
X142357144Y-64378571D01*
X142571430Y-64378571D01*
X142714287Y-64450000D01*
X143214287Y-64378571D02*
X143785716Y-64378571D01*
X143428573Y-63878571D02*
X143428573Y-65164286D01*
X143500001Y-65307143D01*
X143642859Y-65378571D01*
X143785716Y-65378571D01*
X145928573Y-64592857D02*
X146142859Y-64664286D01*
X146214287Y-64735714D01*
X146285716Y-64878571D01*
X146285716Y-65092857D01*
X146214287Y-65235714D01*
X146142859Y-65307143D01*
X146000001Y-65378571D01*
X145428573Y-65378571D01*
X145428573Y-63878571D01*
X145928573Y-63878571D01*
X146071430Y-63950000D01*
X146142859Y-64021429D01*
X146214287Y-64164286D01*
X146214287Y-64307143D01*
X146142859Y-64450000D01*
X146071430Y-64521429D01*
X145928573Y-64592857D01*
X145428573Y-64592857D01*
X147142859Y-65378571D02*
X147000001Y-65307143D01*
X146928573Y-65235714D01*
X146857144Y-65092857D01*
X146857144Y-64664286D01*
X146928573Y-64521429D01*
X147000001Y-64450000D01*
X147142859Y-64378571D01*
X147357144Y-64378571D01*
X147500001Y-64450000D01*
X147571430Y-64521429D01*
X147642859Y-64664286D01*
X147642859Y-65092857D01*
X147571430Y-65235714D01*
X147500001Y-65307143D01*
X147357144Y-65378571D01*
X147142859Y-65378571D01*
X148928573Y-65378571D02*
X148928573Y-64592857D01*
X148857144Y-64450000D01*
X148714287Y-64378571D01*
X148428573Y-64378571D01*
X148285716Y-64450000D01*
X148928573Y-65307143D02*
X148785716Y-65378571D01*
X148428573Y-65378571D01*
X148285716Y-65307143D01*
X148214287Y-65164286D01*
X148214287Y-65021429D01*
X148285716Y-64878571D01*
X148428573Y-64807143D01*
X148785716Y-64807143D01*
X148928573Y-64735714D01*
X149642859Y-65378571D02*
X149642859Y-64378571D01*
X149642859Y-64664286D02*
X149714287Y-64521429D01*
X149785716Y-64450000D01*
X149928573Y-64378571D01*
X150071430Y-64378571D01*
X151214287Y-65378571D02*
X151214287Y-63878571D01*
X151214287Y-65307143D02*
X151071430Y-65378571D01*
X150785716Y-65378571D01*
X150642858Y-65307143D01*
X150571430Y-65235714D01*
X150500001Y-65092857D01*
X150500001Y-64664286D01*
X150571430Y-64521429D01*
X150642858Y-64450000D01*
X150785716Y-64378571D01*
X151071430Y-64378571D01*
X151214287Y-64450000D01*
X152857144Y-63878571D02*
X153357144Y-65378571D01*
X153857144Y-63878571D01*
X155142858Y-65378571D02*
X154285715Y-65378571D01*
X154714287Y-65378571D02*
X154714287Y-63878571D01*
X154571430Y-64092857D01*
X154428572Y-64235714D01*
X154285715Y-64307143D01*
X155785715Y-65235714D02*
X155857143Y-65307143D01*
X155785715Y-65378571D01*
X155714286Y-65307143D01*
X155785715Y-65235714D01*
X155785715Y-65378571D01*
X156785715Y-63878571D02*
X156928572Y-63878571D01*
X157071429Y-63950000D01*
X157142858Y-64021429D01*
X157214287Y-64164286D01*
X157285715Y-64450000D01*
X157285715Y-64807143D01*
X157214287Y-65092857D01*
X157142858Y-65235714D01*
X157071429Y-65307143D01*
X156928572Y-65378571D01*
X156785715Y-65378571D01*
X156642858Y-65307143D01*
X156571429Y-65235714D01*
X156500001Y-65092857D01*
X156428572Y-64807143D01*
X156428572Y-64450000D01*
X156500001Y-64164286D01*
X156571429Y-64021429D01*
X156642858Y-63950000D01*
X156785715Y-63878571D01*
D13*
X163550000Y-88200000D02*
G75*
G03X163550000Y-88200000I-100000J0D01*
G01*
X163200000Y-88750000D02*
X163200000Y-88250000D01*
X160300000Y-88750000D02*
X163200000Y-88750000D01*
X160300000Y-88250000D02*
X160300000Y-88750000D01*
X163200000Y-88250000D02*
X160300000Y-88250000D01*
X148800000Y-88200000D02*
G75*
G03X148800000Y-88200000I-100000J0D01*
G01*
X148450000Y-88750000D02*
X148450000Y-88250000D01*
X145550000Y-88750000D02*
X148450000Y-88750000D01*
X145550000Y-88250000D02*
X145550000Y-88750000D01*
X148450000Y-88250000D02*
X145550000Y-88250000D01*
X133550000Y-87950000D02*
G75*
G03X133550000Y-87950000I-100000J0D01*
G01*
X133200000Y-88500000D02*
X133200000Y-88000000D01*
X130300000Y-88500000D02*
X133200000Y-88500000D01*
X130300000Y-88000000D02*
X130300000Y-88500000D01*
X133200000Y-88000000D02*
X130300000Y-88000000D01*
X118800000Y-88200000D02*
G75*
G03X118800000Y-88200000I-100000J0D01*
G01*
X118450000Y-88750000D02*
X118450000Y-88250000D01*
X115550000Y-88750000D02*
X118450000Y-88750000D01*
X115550000Y-88250000D02*
X115550000Y-88750000D01*
X118450000Y-88250000D02*
X115550000Y-88250000D01*
D10*
X124230278Y-79900000D02*
G75*
G03X124230278Y-79900000I-180278J0D01*
G01*
D13*
X124350000Y-75350000D02*
X124875000Y-75350000D01*
X128650000Y-79650000D02*
X128125000Y-79650000D01*
X128650000Y-75350000D02*
X128125000Y-75350000D01*
X124350000Y-79650000D02*
X124350000Y-79125000D01*
X128650000Y-79650000D02*
X128650000Y-79125000D01*
X128650000Y-75350000D02*
X128650000Y-75875000D01*
X124350000Y-75350000D02*
X124350000Y-75875000D01*
X124875000Y-79650000D02*
X124350000Y-79650000D01*
X83625000Y-88875000D02*
X84150000Y-88875000D01*
X90875000Y-96125000D02*
X90350000Y-96125000D01*
X90875000Y-88875000D02*
X90350000Y-88875000D01*
X83625000Y-96125000D02*
X83625000Y-95600000D01*
X90875000Y-96125000D02*
X90875000Y-95600000D01*
X90875000Y-88875000D02*
X90875000Y-89400000D01*
X83625000Y-88875000D02*
X83625000Y-89400000D01*
X93500000Y-68750000D02*
X93500000Y-72750000D01*
X93500000Y-68750000D02*
X92500000Y-68750000D01*
X86500000Y-68750000D02*
X87500000Y-68750000D01*
X86500000Y-68750000D02*
X86500000Y-72750000D01*
X88000000Y-107750000D02*
X82500000Y-107750000D01*
X88000000Y-104000000D02*
X88000000Y-106000000D01*
X82500000Y-102250000D02*
X88000000Y-102250000D01*
X82500000Y-104000000D02*
X82500000Y-106000000D01*
X86524755Y-105000000D02*
G75*
G03X86524755Y-105000000I-1274755J0D01*
G01*
D12*
X157000000Y-109250000D02*
X151500000Y-109250000D01*
X151500000Y-109250000D02*
X151500000Y-107750000D01*
X158000000Y-97500000D02*
X158000000Y-102250000D01*
X158000000Y-102250000D02*
X159000000Y-102250000D01*
X159000000Y-102250000D02*
X159000000Y-103750000D01*
X156000000Y-92250000D02*
X158000000Y-92250000D01*
X158000000Y-92250000D02*
X158000000Y-93750000D01*
X151500000Y-101750000D02*
X151500000Y-92250000D01*
X151500000Y-92250000D02*
X152500000Y-92250000D01*
X127000000Y-109250000D02*
X121500000Y-109250000D01*
X121500000Y-109250000D02*
X121500000Y-107750000D01*
X128000000Y-97500000D02*
X128000000Y-102250000D01*
X128000000Y-102250000D02*
X129000000Y-102250000D01*
X129000000Y-102250000D02*
X129000000Y-103750000D01*
X126000000Y-92250000D02*
X128000000Y-92250000D01*
X128000000Y-92250000D02*
X128000000Y-93750000D01*
X121500000Y-101750000D02*
X121500000Y-92250000D01*
X121500000Y-92250000D02*
X122500000Y-92250000D01*
X142000000Y-109250000D02*
X136500000Y-109250000D01*
X136500000Y-109250000D02*
X136500000Y-107750000D01*
X143000000Y-97500000D02*
X143000000Y-102250000D01*
X143000000Y-102250000D02*
X144000000Y-102250000D01*
X144000000Y-102250000D02*
X144000000Y-103750000D01*
X141000000Y-92250000D02*
X143000000Y-92250000D01*
X143000000Y-92250000D02*
X143000000Y-93750000D01*
X136500000Y-101750000D02*
X136500000Y-92250000D01*
X136500000Y-92250000D02*
X137500000Y-92250000D01*
X112000000Y-109250000D02*
X106500000Y-109250000D01*
X106500000Y-109250000D02*
X106500000Y-107750000D01*
X113000000Y-97500000D02*
X113000000Y-102250000D01*
X113000000Y-102250000D02*
X114000000Y-102250000D01*
X114000000Y-102250000D02*
X114000000Y-103750000D01*
X111000000Y-92250000D02*
X113000000Y-92250000D01*
X113000000Y-92250000D02*
X113000000Y-93750000D01*
X106500000Y-101750000D02*
X106500000Y-92250000D01*
X106500000Y-92250000D02*
X107500000Y-92250000D01*
D13*
X75020000Y-96310000D02*
X75020000Y-88690000D01*
X72480000Y-96310000D02*
X72480000Y-88690000D01*
X72200000Y-99130000D02*
X72200000Y-97580000D01*
X75020000Y-88690000D02*
X72480000Y-88690000D01*
X72480000Y-96310000D02*
X75020000Y-96310000D01*
X75300000Y-97580000D02*
X75300000Y-99130000D01*
X75300000Y-99130000D02*
X72200000Y-99130000D01*
X94650000Y-73100000D02*
X94650000Y-72400000D01*
X95850000Y-72400000D02*
X95850000Y-73100000D01*
X84150000Y-73100000D02*
X84150000Y-72400000D01*
X85350000Y-72400000D02*
X85350000Y-73100000D01*
X92150000Y-105100000D02*
X92150000Y-104400000D01*
X93350000Y-104400000D02*
X93350000Y-105100000D01*
X120850000Y-80350000D02*
X120150000Y-80350000D01*
X120150000Y-79150000D02*
X120850000Y-79150000D01*
X82350000Y-88650000D02*
X82350000Y-89350000D01*
X81150000Y-89350000D02*
X81150000Y-88650000D01*
X87600000Y-99100000D02*
X86900000Y-99100000D01*
X86900000Y-97900000D02*
X87600000Y-97900000D01*
X93600000Y-88650000D02*
X93600000Y-89350000D01*
X92400000Y-89350000D02*
X92400000Y-88650000D01*
X119400000Y-89100000D02*
X119400000Y-88400000D01*
X120600000Y-88400000D02*
X120600000Y-89100000D01*
X134150000Y-88600000D02*
X134150000Y-87900000D01*
X135350000Y-87900000D02*
X135350000Y-88600000D01*
X149650000Y-88850000D02*
X149650000Y-88150000D01*
X150850000Y-88150000D02*
X150850000Y-88850000D01*
X164400000Y-88850000D02*
X164400000Y-88150000D01*
X165600000Y-88150000D02*
X165600000Y-88850000D01*
X81150000Y-96100000D02*
X81150000Y-95400000D01*
X82350000Y-95400000D02*
X82350000Y-96100000D01*
X121000000Y-76675000D02*
X120000000Y-76675000D01*
X120000000Y-75325000D02*
X121000000Y-75325000D01*
X79325000Y-89500000D02*
X79325000Y-88500000D01*
X80675000Y-88500000D02*
X80675000Y-89500000D01*
X78925000Y-88500000D02*
X78925000Y-89500000D01*
X77575000Y-89500000D02*
X77575000Y-88500000D01*
X121000000Y-74675000D02*
X120000000Y-74675000D01*
X120000000Y-73325000D02*
X121000000Y-73325000D01*
X90075000Y-105250000D02*
X90075000Y-104250000D01*
X91425000Y-104250000D02*
X91425000Y-105250000D01*
X79325000Y-85250000D02*
X79325000Y-84250000D01*
X80675000Y-84250000D02*
X80675000Y-85250000D01*
X121000000Y-82425000D02*
X120000000Y-82425000D01*
X120000000Y-81075000D02*
X121000000Y-81075000D01*
X120000000Y-77325000D02*
X121000000Y-77325000D01*
X121000000Y-78675000D02*
X120000000Y-78675000D01*
X109750000Y-87175000D02*
X108750000Y-87175000D01*
X108750000Y-85825000D02*
X109750000Y-85825000D01*
X109750000Y-85175000D02*
X108750000Y-85175000D01*
X108750000Y-83825000D02*
X109750000Y-83825000D01*
X124750000Y-87175000D02*
X123750000Y-87175000D01*
X123750000Y-85825000D02*
X124750000Y-85825000D01*
X124750000Y-85175000D02*
X123750000Y-85175000D01*
X123750000Y-83825000D02*
X124750000Y-83825000D01*
X139750000Y-87175000D02*
X138750000Y-87175000D01*
X138750000Y-85825000D02*
X139750000Y-85825000D01*
X139750000Y-85175000D02*
X138750000Y-85175000D01*
X138750000Y-83825000D02*
X139750000Y-83825000D01*
X154750000Y-87175000D02*
X153750000Y-87175000D01*
X153750000Y-85825000D02*
X154750000Y-85825000D01*
X154750000Y-85175000D02*
X153750000Y-85175000D01*
X153750000Y-83825000D02*
X154750000Y-83825000D01*
X108750000Y-87825000D02*
X109750000Y-87825000D01*
X109750000Y-89175000D02*
X108750000Y-89175000D01*
X138750000Y-87825000D02*
X139750000Y-87825000D01*
X139750000Y-89175000D02*
X138750000Y-89175000D01*
X123750000Y-87825000D02*
X124750000Y-87825000D01*
X124750000Y-89175000D02*
X123750000Y-89175000D01*
X153750000Y-87825000D02*
X154750000Y-87825000D01*
X154750000Y-89175000D02*
X153750000Y-89175000D01*
X113325000Y-89000000D02*
X113325000Y-88000000D01*
X114675000Y-88000000D02*
X114675000Y-89000000D01*
X128075000Y-88750000D02*
X128075000Y-87750000D01*
X129425000Y-87750000D02*
X129425000Y-88750000D01*
X143075000Y-89000000D02*
X143075000Y-88000000D01*
X144425000Y-88000000D02*
X144425000Y-89000000D01*
X157825000Y-89000000D02*
X157825000Y-88000000D01*
X159175000Y-88000000D02*
X159175000Y-89000000D01*
X121000000Y-72675000D02*
X120000000Y-72675000D01*
X120000000Y-71325000D02*
X121000000Y-71325000D01*
X121000000Y-70675000D02*
X120000000Y-70675000D01*
X120000000Y-69325000D02*
X121000000Y-69325000D01*
X69305000Y-75025000D02*
X69305000Y-83025000D01*
X76625000Y-75025000D02*
X76625000Y-83025000D01*
X76625000Y-83025000D02*
X69305000Y-83025000D01*
X69925000Y-83025000D02*
X69925000Y-75025000D01*
X69305000Y-75025000D02*
X76625000Y-75025000D01*
X113650000Y-61230000D02*
X131430000Y-61230000D01*
X131430000Y-61230000D02*
X131430000Y-63770000D01*
X131430000Y-63770000D02*
X113650000Y-63770000D01*
X110830000Y-60950000D02*
X112380000Y-60950000D01*
X113650000Y-61230000D02*
X113650000Y-63770000D01*
X112380000Y-64050000D02*
X110830000Y-64050000D01*
X110830000Y-64050000D02*
X110830000Y-60950000D01*
M02*
