G04 #@! TF.FileFunction,Soldermask,Top*
%FSLAX46Y46*%
G04 Gerber Fmt 4.6, Leading zero omitted, Abs format (unit mm)*
G04 Created by KiCad (PCBNEW 4.0.1-3.201512221402+6198~38~ubuntu14.04.1-stable) date Wed 24 Feb 2016 01:49:48 AM EST*
%MOMM*%
G01*
G04 APERTURE LIST*
%ADD10C,0.100000*%
%ADD11R,0.750000X1.160000*%
%ADD12O,0.350000X0.900000*%
%ADD13O,0.900000X0.350000*%
%ADD14R,1.350000X1.350000*%
%ADD15R,0.350000X0.800000*%
%ADD16R,0.800000X0.350000*%
%ADD17R,1.387500X1.387500*%
%ADD18R,3.350000X2.000000*%
%ADD19R,1.050000X2.000000*%
%ADD20R,1.600000X0.950000*%
%ADD21R,2.900000X2.900000*%
%ADD22R,2.900000X2.300000*%
%ADD23R,2.900000X2.100000*%
%ADD24C,1.800000*%
%ADD25R,2.132000X1.827200*%
%ADD26O,2.132000X1.827200*%
%ADD27R,0.850000X0.900000*%
%ADD28R,0.900000X0.850000*%
%ADD29R,0.600000X1.000000*%
%ADD30R,1.000000X0.600000*%
%ADD31R,1.750000X0.500000*%
%ADD32O,1.600000X1.200000*%
%ADD33O,1.800000X1.300000*%
%ADD34R,2.600000X1.525000*%
%ADD35R,1.827200X2.132000*%
%ADD36O,1.827200X2.132000*%
G04 APERTURE END LIST*
D10*
D11*
X162700000Y-87400000D03*
X161750000Y-87400000D03*
X160800000Y-87400000D03*
X160800000Y-89600000D03*
X162700000Y-89600000D03*
X147950000Y-87400000D03*
X147000000Y-87400000D03*
X146050000Y-87400000D03*
X146050000Y-89600000D03*
X147950000Y-89600000D03*
X132700000Y-87150000D03*
X131750000Y-87150000D03*
X130800000Y-87150000D03*
X130800000Y-89350000D03*
X132700000Y-89350000D03*
X117950000Y-87400000D03*
X117000000Y-87400000D03*
X116050000Y-87400000D03*
X116050000Y-89600000D03*
X117950000Y-89600000D03*
D12*
X125250000Y-79450000D03*
X125750000Y-79450000D03*
X126250000Y-79450000D03*
X126750000Y-79450000D03*
X127250000Y-79450000D03*
X127750000Y-79450000D03*
D13*
X128450000Y-78750000D03*
X128450000Y-78250000D03*
X128450000Y-77750000D03*
X128450000Y-77250000D03*
X128450000Y-76750000D03*
X128450000Y-76250000D03*
D12*
X127750000Y-75550000D03*
X127250000Y-75550000D03*
X126750000Y-75550000D03*
X126250000Y-75550000D03*
X125750000Y-75550000D03*
X125250000Y-75550000D03*
D13*
X124550000Y-76250000D03*
X124550000Y-76750000D03*
X124550000Y-77250000D03*
X124550000Y-77750000D03*
X124550000Y-78250000D03*
X124550000Y-78750000D03*
D14*
X127125000Y-76875000D03*
X125875000Y-76875000D03*
X127125000Y-78125000D03*
X125875000Y-78125000D03*
D15*
X84500000Y-95900000D03*
X85000000Y-95900000D03*
X85500000Y-95900000D03*
X86000000Y-95900000D03*
X86500000Y-95900000D03*
X87000000Y-95900000D03*
X87500000Y-95900000D03*
X88000000Y-95900000D03*
X88500000Y-95900000D03*
X89000000Y-95900000D03*
X89500000Y-95900000D03*
X90000000Y-95900000D03*
D16*
X90650000Y-95250000D03*
X90650000Y-94750000D03*
X90650000Y-94250000D03*
X90650000Y-93750000D03*
X90650000Y-93250000D03*
X90650000Y-92750000D03*
X90650000Y-92250000D03*
X90650000Y-91750000D03*
X90650000Y-91250000D03*
X90650000Y-90750000D03*
X90650000Y-90250000D03*
X90650000Y-89750000D03*
D15*
X90000000Y-89100000D03*
X89500000Y-89100000D03*
X89000000Y-89100000D03*
X88500000Y-89100000D03*
X88000000Y-89100000D03*
X87500000Y-89100000D03*
X87000000Y-89100000D03*
X86500000Y-89100000D03*
X86000000Y-89100000D03*
X85500000Y-89100000D03*
X85000000Y-89100000D03*
X84500000Y-89100000D03*
D16*
X83850000Y-89750000D03*
X83850000Y-90250000D03*
X83850000Y-90750000D03*
X83850000Y-91250000D03*
X83850000Y-91750000D03*
X83850000Y-92250000D03*
X83850000Y-92750000D03*
X83850000Y-93250000D03*
X83850000Y-93750000D03*
X83850000Y-94250000D03*
X83850000Y-94750000D03*
X83850000Y-95250000D03*
D17*
X89181250Y-90568750D03*
X87893750Y-90568750D03*
X86606250Y-90568750D03*
X85318750Y-90568750D03*
X89181250Y-91856250D03*
X87893750Y-91856250D03*
X86606250Y-91856250D03*
X85318750Y-91856250D03*
X89181250Y-93143750D03*
X87893750Y-93143750D03*
X86606250Y-93143750D03*
X85318750Y-93143750D03*
X89181250Y-94431250D03*
X87893750Y-94431250D03*
X86606250Y-94431250D03*
X85318750Y-94431250D03*
D18*
X90000000Y-67700000D03*
D19*
X87700000Y-73800000D03*
X90000000Y-73800000D03*
X92300000Y-73800000D03*
D20*
X82500000Y-106850000D03*
X88000000Y-106850000D03*
X88000000Y-103150000D03*
X82500000Y-103150000D03*
D21*
X154250000Y-91750000D03*
X158700000Y-95850000D03*
D22*
X158700000Y-105250000D03*
D23*
X158700000Y-108050000D03*
X151300000Y-106150000D03*
D22*
X151300000Y-103350000D03*
D24*
X155000000Y-104150000D03*
X155000000Y-97150000D03*
D21*
X124250000Y-91750000D03*
X128700000Y-95850000D03*
D22*
X128700000Y-105250000D03*
D23*
X128700000Y-108050000D03*
X121300000Y-106150000D03*
D22*
X121300000Y-103350000D03*
D24*
X125000000Y-104150000D03*
X125000000Y-97150000D03*
D21*
X139250000Y-91750000D03*
X143700000Y-95850000D03*
D22*
X143700000Y-105250000D03*
D23*
X143700000Y-108050000D03*
X136300000Y-106150000D03*
D22*
X136300000Y-103350000D03*
D24*
X140000000Y-104150000D03*
X140000000Y-97150000D03*
D21*
X109250000Y-91750000D03*
X113700000Y-95850000D03*
D22*
X113700000Y-105250000D03*
D23*
X113700000Y-108050000D03*
X106300000Y-106150000D03*
D22*
X106300000Y-103350000D03*
D24*
X110000000Y-104150000D03*
X110000000Y-97150000D03*
D25*
X73750000Y-97580000D03*
D26*
X73750000Y-95040000D03*
X73750000Y-92500000D03*
X73750000Y-89960000D03*
D27*
X95250000Y-73500000D03*
X95250000Y-72000000D03*
X84750000Y-73500000D03*
X84750000Y-72000000D03*
X92750000Y-105500000D03*
X92750000Y-104000000D03*
D28*
X121250000Y-79750000D03*
X119750000Y-79750000D03*
D27*
X81750000Y-88250000D03*
X81750000Y-89750000D03*
D28*
X88000000Y-98500000D03*
X86500000Y-98500000D03*
D27*
X93000000Y-88250000D03*
X93000000Y-89750000D03*
X120000000Y-89500000D03*
X120000000Y-88000000D03*
X134750000Y-89000000D03*
X134750000Y-87500000D03*
X150250000Y-89250000D03*
X150250000Y-87750000D03*
X165000000Y-89250000D03*
X165000000Y-87750000D03*
X81750000Y-96500000D03*
X81750000Y-95000000D03*
D29*
X119750000Y-76000000D03*
X121250000Y-76000000D03*
D30*
X80000000Y-88250000D03*
X80000000Y-89750000D03*
X78250000Y-89750000D03*
X78250000Y-88250000D03*
D29*
X119750000Y-74000000D03*
X121250000Y-74000000D03*
D30*
X90750000Y-104000000D03*
X90750000Y-105500000D03*
X80000000Y-84000000D03*
X80000000Y-85500000D03*
D29*
X119750000Y-81750000D03*
X121250000Y-81750000D03*
X121250000Y-78000000D03*
X119750000Y-78000000D03*
X108500000Y-86500000D03*
X110000000Y-86500000D03*
X108500000Y-84500000D03*
X110000000Y-84500000D03*
X123500000Y-86500000D03*
X125000000Y-86500000D03*
X123500000Y-84500000D03*
X125000000Y-84500000D03*
X138500000Y-86500000D03*
X140000000Y-86500000D03*
X138500000Y-84500000D03*
X140000000Y-84500000D03*
X153500000Y-86500000D03*
X155000000Y-86500000D03*
X153500000Y-84500000D03*
X155000000Y-84500000D03*
X110000000Y-88500000D03*
X108500000Y-88500000D03*
X140000000Y-88500000D03*
X138500000Y-88500000D03*
X125000000Y-88500000D03*
X123500000Y-88500000D03*
X155000000Y-88500000D03*
X153500000Y-88500000D03*
D30*
X114000000Y-87750000D03*
X114000000Y-89250000D03*
X128750000Y-87500000D03*
X128750000Y-89000000D03*
X143750000Y-87750000D03*
X143750000Y-89250000D03*
X158500000Y-87750000D03*
X158500000Y-89250000D03*
D29*
X119750000Y-72000000D03*
X121250000Y-72000000D03*
X119750000Y-70000000D03*
X121250000Y-70000000D03*
D31*
X75000000Y-77725000D03*
X75000000Y-78375000D03*
X75000000Y-79024100D03*
X75000000Y-79675000D03*
X75000000Y-80325000D03*
D32*
X75125000Y-76600000D03*
X75125000Y-81450000D03*
D33*
X72125000Y-76300000D03*
X72125000Y-81750000D03*
D34*
X71875000Y-78062500D03*
X71875000Y-79987500D03*
D35*
X112380000Y-62500000D03*
D36*
X114920000Y-62500000D03*
X117460000Y-62500000D03*
X120000000Y-62500000D03*
X122540000Y-62500000D03*
X125080000Y-62500000D03*
X127620000Y-62500000D03*
X130160000Y-62500000D03*
M02*
