M48
;DRILL file {KiCad 4.0.1-3.201512221402+6198~38~ubuntu14.04.1-stable} date Wed 24 Feb 2016 01:50:02 AM EST
;FORMAT={-:-/ absolute / inch / decimal}
FMAT,2
INCH,TZ
T1C0.012
T2C0.016
T3C0.026
T4C0.028
T5C0.040
T6C0.138
T7C0.067
%
G90
G05
M72
T1
X2.8297Y-3.0733
X2.8297Y-3.1491
X3.0413Y-3.4744
X3.0497Y-3.1807
X3.1102Y-3.3661
X3.1594Y-3.6122
X3.1791Y-3.7402
X3.2185Y-3.5728
X3.2185Y-3.6811
X3.248Y-4.252
X3.3465Y-3.4646
X3.3661Y-3.878
X3.376Y-3.937
X3.376Y-4.0388
X3.4547Y-3.8287
X3.4646Y-4.252
X3.5038Y-3.3464
X3.5398Y-3.343
X3.5612Y-3.3644
X3.5827Y-3.3858
X3.6024Y-3.2874
X3.622Y-3.3161
X3.622Y-3.3465
X3.6238Y-3.2644
X3.6516Y-4.0551
X3.6614Y-3.5728
X3.8287Y-3.8287
X3.8287Y-4.0157
X3.8681Y-3.8386
X3.8681Y-4.0059
X4.2421Y-3.4843
X4.3799Y-4.0059
X4.3996Y-3.8583
X4.4882Y-3.5433
X4.6063Y-3.3957
X4.626Y-3.8681
X4.626Y-4.0059
X4.6752Y-3.0709
X4.6752Y-3.1398
X4.7047Y-2.6266
X4.7244Y-3.4252
X4.7343Y-2.6181
X4.7736Y-2.7199
X4.7736Y-2.7953
X4.7942Y-3.032
X4.8031Y-3.9994
X4.8327Y-3.4843
X4.8327Y-3.8878
X4.8508Y-3.089
X4.9311Y-2.9331
X5.0689Y-3.5335
X5.128Y-3.0512
X5.1772Y-3.8976
X5.1772Y-4.0059
X5.187Y-3.3858
X5.3051Y-3.4055
X5.3543Y-4.0039
X5.4331Y-3.9173
X5.6594Y-3.5433
X5.7874Y-3.3957
X5.7874Y-3.937
X5.7874Y-4.0157
X5.9154Y-3.4154
X5.9547Y-3.9994
X6.0138Y-3.4843
X6.0531Y-3.9469
X6.2402Y-3.5433
X6.3681Y-3.3957
X6.4961Y-3.4154
T2
X3.1004Y-3.6516
X3.1004Y-3.75
X3.1004Y-3.8386
X3.2185Y-3.8386
X3.3366Y-2.7854
X3.4547Y-2.9724
X3.5728Y-3.9654
X3.5728Y-4.0453
X3.75Y-2.7953
X3.7598Y-3.7795
X3.8484Y-3.4252
X4.0354Y-3.4252
X4.2224Y-3.4055
X4.4783Y-4.0748
X4.5177Y-3.4055
X4.6358Y-3.061
X4.6654Y-2.9134
X4.6654Y-3.002
X4.7835Y-3.3563
X4.8228Y-3.2382
X5.0295Y-3.3563
X5.0689Y-4.0748
X5.3839Y-3.3563
X5.4134Y-3.4843
X5.5709Y-3.3563
X5.6594Y-4.0748
X5.9941Y-3.3268
X6.1811Y-3.3268
X6.25Y-4.0748
T5
X2.9035Y-3.5417
X2.9035Y-3.6417
X2.9035Y-3.7417
X2.9035Y-3.8417
X4.4244Y-2.4606
X4.5244Y-2.4606
X4.6244Y-2.4606
X4.7244Y-2.4606
X4.8244Y-2.4606
X4.9244Y-2.4606
X5.0244Y-2.4606
X5.1244Y-2.4606
T6
X2.9134Y-2.5197
X2.9134Y-4.1732
X6.5354Y-2.5197
X6.5354Y-4.1732
T7
X4.3307Y-3.8248
X4.3307Y-4.1004
X4.9213Y-3.8248
X4.9213Y-4.1004
X5.5118Y-3.8248
X5.5118Y-4.1004
X6.1024Y-3.8248
X6.1024Y-4.1004
T3
X2.9498Y-3.0157G85X2.9656Y-3.0157
G05
X2.9498Y-3.2067G85X2.9656Y-3.2067
G05
T4
X2.8297Y-3.0039G85X2.8494Y-3.0039
G05
X2.8297Y-3.2185G85X2.8494Y-3.2185
G05
T0
M30
